<svg width="512" height="512" viewBox="0 0 512 512" fill="none" xmlns="http://www.w3.org/2000/svg">
    <path d="M423 0H89C39.8467 0 0 39.8467 0 89V423C0 472.153 39.8467 512 89 512H423C472.153 512 512 472.153 512 423V89C512 39.8467 472.153 0 423 0Z" fill="white" />
    <path d="M274.004 232.885C284.887 228.523 295.479 224.12 306.278 219.8C314.046 216.685 322.81 212.905 330.619 209.956C331.824 209.499 333.278 208.834 334.565 208.294C335.853 207.796 337.307 207.131 338.511 206.674C346.445 203.684 354.836 200.028 362.852 196.83C364.182 196.29 365.428 195.792 366.84 195.21C368.128 194.712 369.623 193.839 370.952 193.756L386.072 243.892C386.446 245.18 386.861 246.218 387.193 247.506C390.558 259.676 395.376 274.422 399.073 286.925L405.428 308.316C405.428 309.646 400.984 326.551 400.527 328.379L386.986 382.876C386.612 384.33 385.947 386.49 385.823 387.861H277.991C277.451 386.739 277.119 384.953 276.787 383.499L241.605 245.844C242.809 245.761 272.01 233.674 274.004 232.885Z" fill="#050109" />
    <path d="M90.2423 253.03C87.8747 242.687 84.9671 231.098 82.8487 220.88L74.2504 183.247C70.429 168.169 67.106 150.433 63.2846 135.147C62.8276 133.236 62.5369 131.533 62.0384 129.664C61.7477 128.376 61 125.76 61 124.264H199.86C200.856 124.264 200.69 124.846 200.898 125.76C202.933 134.358 205.841 144.451 208.001 153.133C210.452 162.935 213.152 172.572 215.602 182.5L230.971 241.067L173.649 265.242C160.69 270.85 145.238 276.79 132.777 282.356L103.95 294.443C102.537 294.983 101.333 295.648 99.9205 295.98L90.2423 253.03Z" fill="#34A7DD" />
    <path d="M127.086 294.858C140.129 289.085 154.542 283.477 167.876 277.703C169.33 277.08 170.617 276.665 172.071 276C173.525 275.336 174.646 274.879 176.183 274.256L217.056 257.142C219.881 255.896 222.497 254.816 225.322 253.653L233.463 250.33C233.505 251.909 234.709 255.813 235.125 257.392L243.64 291.992C244.18 294.194 244.72 296.644 245.301 299.012C247.171 306.489 247.378 304.246 245.675 311.016L227.939 383.167C227.399 385.368 227.274 387.57 226.194 387.57H119.775C119.775 385.534 111.343 348.068 110.969 346.282C109.391 339.262 108.103 332.74 106.525 325.804C105.694 322.19 105.113 318.992 104.282 315.419C103.867 313.592 103.617 312.179 103.202 310.352C102.953 309.106 102.164 306.572 102.164 305.243L127.086 294.858Z" fill="#6B7C7D" />
    <path d="M210.908 124.804C211.075 124.056 211.282 124.264 212.445 124.223C213.193 124.223 213.982 124.264 214.73 124.264H349.976C350.557 126.798 351.513 129.373 352.219 131.824C352.925 134.399 353.714 136.808 354.462 139.384C354.836 140.796 355.209 141.793 355.625 143.247C355.957 144.368 356.331 145.739 356.746 146.902C357.494 149.145 358.283 151.928 358.948 154.254C360.318 159.28 362.063 164.223 363.475 169.291C364.555 173.195 367.089 180.838 367.878 184.203L255.437 229.728C253.983 230.309 252.861 230.766 251.491 231.348L239.362 236.041L210.908 124.804Z" fill="#133168" />
    <path d="M402.687 244.681C402.188 242.937 401.814 241.607 401.316 239.863C397.453 226.945 393.756 214.317 389.893 201.399C386.238 189.063 382.333 174.732 378.553 162.894C376.103 155.21 373.86 146.196 371.409 138.678C370.869 136.975 370.578 135.562 370.038 133.901L367.338 124.264H450.205C451.41 124.264 450.953 125.095 450.704 126.092L446.426 143.164C444.723 149.768 443.31 155.916 441.649 162.479C439.987 169.083 438.45 175.604 436.83 182.043L432.054 201.316C431.597 202.936 431.264 204.598 430.849 206.301L427.235 220.88C426.903 222.5 426.363 223.995 425.989 225.782C423.788 235.792 420.216 249.416 417.682 259.51C417.391 260.715 413.445 277.537 412.697 278.617L402.687 244.681Z" fill="#E12B19" />
</svg>
    